<svg xmlns="http://www.w3.org/2000/svg" xmlns:xlink="http://www.w3.org/1999/xlink" width="1080" zoomAndPan="magnify" viewBox="0 0 810 809.999993" height="1080" preserveAspectRatio="xMidYMid meet" version="1.0"><defs><clipPath id="611ef6dd18"><path d="M 81 69.152344 L 594 69.152344 L 594 741 L 81 741 Z M 81 69.152344 " clip-rule="nonzero"/></clipPath></defs><path fill="#000000" d="M 228.453125 477.359375 L 175.6875 477.359375 C 163.023438 477.359375 152.664062 487.722656 152.664062 500.390625 L 152.664062 553.167969 C 152.664062 565.835938 163.023438 576.199219 175.6875 576.199219 L 228.453125 576.199219 C 241.117188 576.199219 251.476562 565.835938 251.476562 553.167969 L 251.476562 500.390625 C 251.476562 487.628906 241.117188 477.359375 228.453125 477.359375 Z M 236.128906 553.167969 C 236.128906 557.390625 232.675781 560.84375 228.453125 560.84375 L 175.6875 560.84375 C 171.46875 560.84375 168.011719 557.390625 168.011719 553.167969 L 168.011719 500.390625 C 168.011719 496.167969 171.46875 492.714844 175.6875 492.714844 L 228.453125 492.714844 C 232.675781 492.714844 236.128906 496.167969 236.128906 500.390625 Z M 236.128906 553.167969 " fill-opacity="1" fill-rule="nonzero"/><path fill="#000000" d="M 521.152344 267.882812 L 296.855469 267.882812 C 290.523438 267.882812 285.34375 273.0625 285.34375 279.394531 C 285.34375 285.730469 290.523438 290.910156 296.855469 290.910156 L 521.152344 290.910156 C 527.484375 290.910156 532.664062 285.730469 532.664062 279.394531 C 532.664062 273.0625 527.484375 267.882812 521.152344 267.882812 Z M 521.152344 267.882812 " fill-opacity="1" fill-rule="nonzero"/><path fill="#000000" d="M 532.664062 408.269531 C 532.664062 401.9375 527.484375 396.753906 521.152344 396.753906 L 296.855469 396.753906 C 290.523438 396.753906 285.34375 401.9375 285.34375 408.269531 C 285.34375 414.601562 290.523438 419.785156 296.855469 419.785156 L 521.152344 419.785156 C 527.484375 419.785156 532.664062 414.601562 532.664062 408.269531 Z M 532.664062 408.269531 " fill-opacity="1" fill-rule="nonzero"/><path fill="#000000" d="M 278.820312 300.699219 C 275.269531 298.300781 270.570312 299.257812 268.171875 302.808594 L 240.347656 344.359375 C 236.894531 342.25 232.867188 341.097656 228.453125 341.097656 L 175.6875 341.097656 C 171.277344 341.097656 167.054688 342.34375 163.503906 344.550781 L 162.738281 343.496094 C 160.339844 339.945312 155.542969 339.082031 152.089844 341.480469 C 148.539062 343.878906 147.675781 348.679688 150.074219 352.132812 L 153.625 357.410156 C 152.953125 359.523438 152.566406 361.824219 152.566406 364.222656 L 152.566406 417 C 152.566406 429.667969 162.929688 440.03125 175.59375 440.03125 L 228.355469 440.03125 C 241.019531 440.03125 251.382812 429.667969 251.382812 417 L 251.382812 364.222656 C 251.382812 361.730469 250.996094 359.332031 250.230469 357.125 L 280.832031 311.445312 C 283.230469 307.800781 282.273438 303.003906 278.820312 300.699219 Z M 175.6875 356.453125 L 228.453125 356.453125 C 229.605469 356.453125 230.753906 356.738281 231.714844 357.21875 L 207.347656 393.683594 C 205.910156 395.792969 204.085938 396.945312 202.167969 396.945312 C 200.246094 396.945312 198.425781 395.792969 196.984375 393.78125 L 172.234375 357.410156 C 173.195312 356.738281 174.34375 356.453125 175.6875 356.453125 Z M 236.128906 416.90625 C 236.128906 421.128906 232.675781 424.582031 228.453125 424.582031 L 175.6875 424.582031 C 171.46875 424.582031 168.011719 421.128906 168.011719 416.90625 L 168.011719 378.425781 L 184.226562 402.320312 C 188.542969 408.652344 194.972656 412.203125 202.070312 412.203125 C 202.070312 412.203125 202.167969 412.203125 202.167969 412.203125 C 209.265625 412.203125 215.789062 408.558594 220.011719 402.128906 L 236.03125 378.136719 L 236.03125 416.90625 Z M 236.128906 416.90625 " fill-opacity="1" fill-rule="nonzero"/><path fill="#000000" d="M 278.820312 167.316406 C 275.269531 164.917969 270.570312 165.875 268.171875 169.425781 L 241.597656 208.960938 C 237.855469 206.371094 233.347656 204.738281 228.355469 204.738281 L 175.59375 204.738281 C 170.507812 204.738281 165.808594 206.371094 162.066406 209.152344 C 159.570312 206.371094 155.253906 205.796875 152.089844 208.003906 C 148.539062 210.402344 147.675781 215.199219 150.074219 218.652344 L 153.144531 223.066406 C 152.855469 224.605469 152.664062 226.140625 152.664062 227.769531 L 152.664062 280.546875 C 152.664062 293.214844 163.023438 303.578125 175.6875 303.578125 L 228.453125 303.578125 C 241.117188 303.578125 251.476562 293.214844 251.476562 280.546875 L 251.476562 227.769531 C 251.476562 226.042969 251.285156 224.316406 250.902344 222.683594 L 280.929688 177.871094 C 283.230469 174.417969 282.273438 169.617188 278.820312 167.316406 Z M 228.453125 220.1875 C 230.179688 220.1875 231.8125 220.765625 233.152344 221.820312 L 207.347656 260.300781 C 205.910156 262.410156 204.085938 263.5625 202.167969 263.5625 C 200.246094 263.5625 198.425781 262.410156 196.984375 260.394531 L 170.890625 222.011719 C 172.234375 220.957031 173.867188 220.285156 175.6875 220.285156 L 228.453125 220.285156 Z M 236.128906 280.644531 C 236.128906 284.867188 232.675781 288.320312 228.453125 288.320312 L 175.6875 288.320312 C 171.46875 288.320312 168.011719 284.867188 168.011719 280.644531 L 168.011719 245.042969 L 184.226562 268.9375 C 188.542969 275.269531 194.972656 278.820312 202.070312 278.820312 C 202.070312 278.820312 202.167969 278.820312 202.167969 278.820312 C 209.265625 278.820312 215.789062 275.175781 220.011719 268.746094 L 236.03125 244.753906 L 236.03125 280.644531 Z M 236.128906 280.644531 " fill-opacity="1" fill-rule="nonzero"/><path fill="#000000" d="M 671.484375 281.21875 L 654.40625 272.96875 C 635.605469 263.851562 612.769531 271.71875 603.65625 290.527344 L 584.757812 329.488281 L 468.101562 569.382812 C 464.839844 576.003906 463.015625 583.105469 462.632812 590.398438 L 458.316406 674.074219 C 458.121094 678.585938 460.617188 682.902344 464.648438 684.917969 C 466.179688 685.6875 467.910156 686.070312 469.636719 686.070312 C 472.320312 686.070312 475.007812 685.113281 477.117188 683.289062 L 540.242188 628.207031 C 545.808594 623.410156 550.222656 617.554688 553.484375 610.933594 L 670.140625 370.84375 L 689.039062 331.980469 C 698.25 313.078125 690.382812 290.335938 671.484375 281.21875 Z M 624.1875 300.410156 C 627.832031 292.832031 637.042969 289.664062 644.527344 293.40625 L 661.601562 301.660156 C 669.179688 305.304688 672.347656 314.515625 668.605469 322.003906 L 654.695312 350.695312 L 610.179688 329.101562 Z M 525.277344 611.125 L 482.394531 648.550781 L 485.367188 591.648438 C 485.5625 587.328125 486.617188 583.203125 488.535156 579.363281 L 488.726562 578.980469 L 533.242188 600.570312 L 533.046875 600.957031 C 531.128906 604.890625 528.539062 608.25 525.277344 611.125 Z M 540.242188 586.082031 L 534.390625 583.203125 L 495.824219 564.394531 L 597.230469 355.78125 L 641.742188 377.371094 Z M 540.242188 586.082031 " fill-opacity="1" fill-rule="nonzero"/><path fill="#000000" d="M 296.855469 525.914062 C 290.523438 525.914062 285.34375 531.097656 285.34375 537.429688 C 285.34375 543.761719 290.523438 548.945312 296.855469 548.945312 L 451.121094 548.945312 C 457.453125 548.945312 462.632812 543.761719 462.632812 537.429688 C 462.632812 531.097656 457.453125 525.914062 451.121094 525.914062 Z M 296.855469 525.914062 " fill-opacity="1" fill-rule="nonzero"/><g clip-path="url(#611ef6dd18)"><path fill="#000000" d="M 582.359375 588.960938 C 576.125 588.960938 571.039062 594.046875 571.039062 600.285156 L 571.039062 685.398438 C 571.039062 703.535156 556.359375 718.3125 538.132812 718.3125 L 136.546875 718.3125 C 118.414062 718.3125 103.640625 703.632812 103.640625 685.398438 L 103.640625 124.902344 C 103.640625 106.765625 118.320312 91.988281 136.546875 91.988281 L 538.132812 91.988281 C 556.265625 91.988281 571.039062 106.667969 571.039062 124.902344 L 571.039062 280.355469 C 571.039062 286.59375 576.125 291.679688 582.359375 291.679688 C 588.59375 291.679688 593.679688 286.59375 593.679688 280.355469 L 593.679688 124.902344 C 593.679688 94.195312 568.832031 69.339844 538.132812 69.339844 L 136.546875 69.339844 C 105.847656 69.339844 81 94.195312 81 124.902344 L 81 685.398438 C 81 716.105469 105.847656 740.960938 136.546875 740.960938 L 538.132812 740.960938 C 568.832031 740.960938 593.679688 716.105469 593.679688 685.398438 L 593.679688 600.285156 C 593.679688 594.046875 588.59375 588.960938 582.359375 588.960938 Z M 582.359375 588.960938 " fill-opacity="1" fill-rule="nonzero"/></g></svg>